<svg version="1.1" xmlns="http://www.w3.org/2000/svg" xmlns:xlink="http://www.w3.org/1999/xlink" width="700" height="700" viewBox="406,61.5,700,700"><defs><linearGradient x1="445.83912" y1="402.51993" x2="985.44748" y2="430.63385" gradientUnits="userSpaceOnUse" id="color-1"><stop offset="0" stop-color="#00f8ec"/><stop offset="1" stop-color="#1089fc"/></linearGradient><linearGradient x1="1064.39748" y1="427.46613" x2="527.04272" y2="378.44913" gradientUnits="userSpaceOnUse" id="color-2"><stop offset="0" stop-color="#107ffb"/><stop offset="1" stop-color="#00ebee"/></linearGradient></defs><g id="document" fill="#ffffff" fill-rule="nonzero" stroke="#000000" stroke-width="0" stroke-linecap="butt" stroke-linejoin="miter" stroke-miterlimit="10" stroke-dasharray="" stroke-dashoffset="0" font-family="none" font-weight="none" font-size="none" text-anchor="none" style="mix-blend-mode: normal"><rect x="406" y="43.92857" transform="scale(1,1.4)" width="700" height="500" id="Shape 1 1" vector-effect="non-scaling-stroke"/></g><g fill="none" fill-rule="nonzero" stroke="none" stroke-width="1" stroke-linecap="butt" stroke-linejoin="miter" stroke-miterlimit="10" stroke-dasharray="" stroke-dashoffset="0" font-family="none" font-weight="none" font-size="none" text-anchor="none" style="mix-blend-mode: normal"><g><g id="stage"><g id="layer1 1"><path d="M513.57566,274.56283c21.86,-19.096 59.338,-34.1614 87.574,-37.9624c97.068,-13.0668 173.732,49.4064 206.454,136.6544c12.472,32.182 9.796,60.618 42.11,81.964c35.804,24.606 89.872,4.29 92.736,-41.47c1.986,-36.302 -28.988,-61.792 -64.246,-56.082c-3.372,0.42 -6.766,1.258 -10.128,1.704c-27.624,3.662 -34.188,-35.174 -7.892,-43.064c68.282,-20.49 134.498,36.5 125.722,107.01c-13.25,106.448 -158.48,119.436 -204.152,15.5c-8.2,-18.656 -10.61,-37.816 -17.18,-56.934c-35.354,-102.888 -158.274,-136.294 -237.574,-59.274c-21.634,24.148 -33.032,47.904 -35.188,80.398c-7.054,106.328 104.498,174.588 195.348,126.152c7.324,-3.906 16.206,-12.002 24.842,-11.132c19.826,2.448 27.924,26.51 11.024,38.37c-81.054,56.882 -188.788,35.246 -245.572,-44.746c-52.2552,-73.248 -37.4722,-184.912 36.122,-237.088z" id="Path 1" fill="url(#color-1)"/><path d="M630.91366,312.39683c33.514,3.672 59.932,16.436 81.468,43.002c24.71,30.48 23.192,53.28 35.41,86.908c20.066,55.23 66.736,94.65 125.624,101.532c117.054,14.186 191.264,-122.722 119.2,-213.892c-39.252,-49.66 -105.354,-67.9 -162.296,-38.138c-5.958,3.112 -11.782,7.992 -18.336,9.644c-13.84,2.754 -26.942,-7.932 -26.192,-22.202c0.814,-15.436 15.344,-20.564 26.952,-26.722c122.504,-62.254 272.842,47.47 250.662,186.03c-15.544,97.898 -107.016,163.4 -204.59,146.926c-74.338,-12.55 -131.606,-66.03 -154.072,-137.004c-12.308,-38.886 -21.594,-88.444 -73.83,-91.192c-81.32,1.558 -76.422,101.99 -11.222,110.36c16.152,2.074 42.212,-8.91 45.356,18.23c1.984,17.118 -9.714,22.8 -24.462,24.314c-96.86,9.738 -151.39,-91.604 -92.024,-160.748c23.36,-27.206 47.77,-34.382 82.352,-37.048z" id="Path 1" fill="url(#color-2)"/></g></g></g></g></svg>